<svg width="86" height="86" viewBox="0 0 86 86" fill="none" xmlns="http://www.w3.org/2000/svg">
<path d="M86 43C86 66.7482 66.7482 86 43 86C19.2518 86 0 66.7482 0 43C0 19.2518 19.2518 0 43 0C66.7482 0 86 19.2518 86 43Z" fill="black"/>
<path d="M16.384 44.2751C18.5333 40.8362 26.235 40.3347 29.8172 40.5138C39.704 40.0839 43.9669 46.4245 44.8625 49.6485C47.5491 44.8125 58.8331 40.5138 60.445 40.5138C62.057 40.5138 68.505 40.5138 72.2663 50.1858C76.0276 59.8579 71.1916 65.2311 69.5797 67.3804C67.9677 69.5297 63.669 72.7537 55.3555 71.679C48.7047 70.8193 44.5143 64.8728 43.2505 62.0071C38.4145 68.9924 34.1159 72.2164 27.1306 71.679C20.1453 71.1417 16.9213 65.7684 14.2347 60.9324C11.548 56.0965 13.6973 48.5738 16.384 44.2751Z" fill="#E7FBA2"/>
<path d="M33.5783 27.6194C31.8589 31.0583 30.3544 37.6495 29.817 40.5153C28.9215 47.1422 27.9901 56.5271 31.429 41.052C35.7277 21.7081 40.5636 19.0215 41.101 19.0215C41.5308 19.0215 41.6383 19.7379 41.6383 20.0962C42.9279 30.4129 48.6236 40.5147 51.3102 44.276C55.9671 49.2911 62.9165 56.0972 53.4595 43.2013C44.0025 30.3054 43.4294 18.8428 44.3249 14.7235C43.4652 12.5742 42.5338 12.7533 42.1756 13.1115C38.9516 15.2608 35.7277 23.3208 33.5783 27.6194Z" fill="#E7FBA2"/>
</svg>
