<svg width="1322" height="966" viewBox="0 0 1322 966" fill="none" xmlns="http://www.w3.org/2000/svg">
<path d="M476.266 685.481C487.625 718.87 487.637 742.945 474.2 747.516C458.523 752.849 443.183 724.449 428.776 682.101C414.37 639.753 409.209 607.889 425.293 602.418C437.102 598.4 449.769 612.264 459.465 640.767L447.046 644.992C443.375 634.202 438.646 628.314 435.389 629.422C430.299 631.154 432.855 648.684 442.621 677.391C451.14 702.433 461.051 721.55 466.141 719.819C470.009 718.503 467.893 706.275 462.422 690.191L476.266 685.481ZM447.036 597.161L485.701 586.104L527.091 730.84L513.031 734.86L478.382 613.696L467.837 616.711L477.889 653.427C493.884 711.706 496.49 739.591 480.776 744.084L478.088 744.853L468.982 713.011C477.459 710.587 475.418 697.974 460.429 644.776L447.036 597.161ZM534.811 701.573C540.051 700.368 538.692 681.04 532.277 653.167C525.862 625.293 518.636 607.316 513.396 608.522C508.157 609.728 509.515 629.055 515.93 656.929C522.345 684.802 529.572 702.779 534.811 701.573ZM506.933 580.439C523.07 576.725 536.496 606.295 546.528 649.887C556.561 693.478 557.412 725.943 541.275 729.657C525.137 733.37 511.712 703.8 501.679 660.208C491.647 616.617 490.796 584.153 506.933 580.439ZM575.428 721.98L561.035 724.57L538.713 600.541L523.474 603.284L519.132 579.155L564.002 571.08L568.345 595.208L553.106 597.951L575.428 721.98ZM642.609 715.393L628.064 716.91L612.449 567.184L626.994 565.667L642.609 715.393ZM593.413 720.524L577.157 722.219L561.542 572.493L576.087 570.976L580.548 613.755L582.26 613.577C604.077 611.301 613.215 636.727 616.07 664.106C618.904 691.27 615.231 718.248 593.413 720.524ZM589.159 696.318L593.437 695.872C600.282 695.158 603.199 681.665 601.526 665.623C599.83 649.367 594.214 636.979 587.369 637.693L583.091 638.139L589.159 696.318ZM645.753 566.177L660.375 566.4L658.584 684.021L660.734 684.053L676.718 566.649L700.801 567.015L698.508 717.536L683.886 717.313L685.678 599.692L683.528 599.659L667.544 717.064L643.461 716.698L645.753 566.177ZM720.942 722.344C706.619 720.774 700.022 692.143 706.957 628.866C712.323 579.912 718.116 546.797 735.859 548.742C745.051 549.749 748.179 544.9 749.122 540.244L763.659 541.837C762.136 555.732 757.772 575.807 742.38 574.12C729.126 572.667 727.457 583.95 726.637 591.432L726.168 595.708L726.596 595.755C730.555 591.213 734.228 585.341 741.282 586.114C755.605 587.684 755.575 615.589 750.866 658.558C746.625 697.251 735.265 723.914 720.942 722.344ZM723.868 693.675C729.212 694.261 733.869 679.411 736.352 656.751C739.258 630.243 737.929 614.737 732.584 614.151C727.24 613.565 722.583 628.415 719.678 654.923C717.194 677.583 718.524 693.089 723.868 693.675ZM759.796 699.339C765.097 700.241 771.273 681.876 776.067 653.679C780.861 625.481 781.102 606.107 775.801 605.206C770.501 604.305 764.325 622.669 759.53 650.867C754.736 679.065 754.496 698.438 759.796 699.339ZM780.632 576.797C796.956 579.572 797.982 612.031 790.484 656.13C782.986 700.228 771.291 730.525 754.966 727.749C738.641 724.973 737.616 692.514 745.114 648.416C752.611 604.317 764.307 574.021 780.632 576.797ZM805.937 583.261L845.153 592.168L811.811 738.967L797.55 735.728L825.463 612.837L814.768 610.407L805.917 647.431C791.903 706.218 780.773 731.918 764.835 728.298L762.109 727.679L769.444 695.383C778.043 697.336 782.321 685.296 794.772 631.447L805.937 583.261ZM827.515 743.891L813.408 740.037L846.617 618.47L831.681 614.389L838.141 590.74L882.121 602.754L875.661 626.404L860.724 622.323L827.515 743.891ZM891.207 766.241L877.382 761.474L926.452 619.158L940.277 623.925L891.207 766.241ZM844.446 750.118L828.995 744.79L878.065 602.474L891.89 607.241L877.87 647.903L879.496 648.464C900.234 655.614 897.781 682.52 888.808 708.544C879.905 734.364 865.184 757.268 844.446 750.118ZM850.811 726.38L854.877 727.782C861.383 730.025 869.725 719.025 874.983 703.777C880.311 688.326 880.45 674.725 873.945 672.482L869.878 671.08L850.811 726.38Z" fill="#E8FCA3"/>
<rect x="534.337" y="107.843" width="36.8984" height="54.3765" fill="#E8FCA3" stroke="#E8FCA3" stroke-width="0.725712"/>
<rect x="283.157" y="190.472" width="265.086" height="400.541" transform="rotate(-21 283.157 190.472)" fill="#E8FCA3" stroke="#E8FCA3" stroke-width="0.725712"/>
<rect x="306.606" y="151.308" width="36.8984" height="54.3765" transform="rotate(-21 306.606 151.308)" fill="#E8FCA3" stroke="#E8FCA3" stroke-width="0.725712"/>
<rect x="283.243" y="274.689" width="36.8984" height="54.3765" transform="rotate(-111 283.243 274.689)" fill="#E8FCA3" stroke="#E8FCA3" stroke-width="0.725712"/>
<rect x="533.833" y="109.48" width="265.086" height="400.541" fill="#E8FCA3" stroke="#E8FCA3" stroke-width="0.725712"/>
<rect width="265.086" height="400.541" transform="matrix(-0.93358 -0.358368 -0.358368 0.93358 1051.77 190.579)" fill="#E8FCA3" stroke="#E8FCA3" stroke-width="0.725712"/>
<rect width="36.8984" height="54.3765" transform="matrix(-0.93358 -0.358368 -0.358368 0.93358 1028.32 151.415)" fill="#E8FCA3" stroke="#E8FCA3" stroke-width="0.725712"/>
<rect width="36.8984" height="54.3765" transform="matrix(-0.999884 -0.0152386 -0.0152386 0.999884 641.798 76.0247)" fill="#E8FCA3" stroke="#E8FCA3" stroke-width="0.725712"/>
<rect width="36.8984" height="54.3765" transform="matrix(-0.999884 -0.0152386 -0.0152386 0.999884 737.903 76.0247)" fill="#E8FCA3" stroke="#E8FCA3" stroke-width="0.725712"/>
<rect width="36.8984" height="54.3765" transform="matrix(0.358368 -0.93358 -0.93358 -0.358368 1051.68 274.79)" fill="#E8FCA3" stroke="#E8FCA3" stroke-width="0.725712"/>
</svg>
