<svg width="888" height="612" viewBox="0 0 888 612" fill="none" xmlns="http://www.w3.org/2000/svg">
<path d="M137.522 310.691H68V291.058H154.902V318.137H162.957V286.32H87.0761V275.15H177.37V324.569H171.011V463.01H247.739V431.869H232.478V449.47H187.543V325.923H194.75V257.548H210.859V252.809H201.109V219.976H70.1196V203.052H201.109V195.605H159.141V181.389H202.804V173.265H159.141V159.049H219.337V166.495H254.098V161.418H337.185V116.061H157.446V101.844H355.413V161.418H396.109L421.967 153.294V104.214H436.38V136.031H456.304V67.9956H470.293V114.03H603.826V106.245H619.087V158.372H630.533V106.245H645.37V158.372H659.783V106.245H671.652V170.557H540.239V200.005H694.12V211.514H522.859V189.174H485.978V233.854H518.196V252.809H671.652V310.691H811.967V304.936H887V328.969H879.793V361.125H806.033V357.063H619.087V304.936H510.565V318.814H522.859V324.569L597.891 325.923V418.329H772.12V523.26H753.043V431.869H597.891V498.212H485.978V483.319H583.478V472.826H470.293V510.059H597.891V523.26H456.304V498.212H441.467V584.188H421.967V478.242H393.141V449.47H381.272V487.042H409.674V498.212H396.109V574.372H381.272V498.212H363.891V366.879H451.217H456.304V360.787H333.37V325.923H341.848V307.983H296.489V325.923H290.978V498.212H128.62V324.569H137.522V310.691Z" fill="#101010"/>
<path d="M341.848 244.686H219.337V177.665H254.098V228.1H265.967V175.973H277.837V228.1H290.978V175.973H303.696V228.1H319.804V175.973H405.435V195.944H436.38V233.854H451.217V186.128H421.967V170.557H436.38V147.878H456.304V170.557H470.293V233.854H485.978V189.174H522.859V211.514H694.12V200.005H540.239V170.557H671.652V106.245H659.783V158.372H645.37V106.245H630.533V158.372H619.087V106.245H603.826V114.03H470.293V67.9956H456.304V136.031H436.38V104.214H421.967V153.294L396.109 161.418H355.413V101.844H157.446V116.061H337.185V161.418H254.098V166.495H219.337V159.049H159.141V173.265H202.804V181.389H159.141V195.605H201.109V203.052H70.1196V219.976H201.109V252.809H210.859V257.548H194.75V325.923H187.543V449.47H232.478V431.869H247.739V463.01H171.011V324.569H177.37V275.15H87.0761V286.32H162.957V318.137H154.902V291.058H68V310.691H137.522V324.569H128.62V498.212H290.978V325.923H296.489V307.983H341.848M341.848 244.686V233.854H377.457V204.5H414V211.514H389.5V233.854H518.196V252.809H671.652V310.691H811.967V304.936H887V328.969H879.793V361.125H806.033V357.063H619.087V304.936H510.565M341.848 244.686V252.471M510.565 304.936V294.443M510.565 304.936V318.814H522.859V324.569L597.891 325.923V418.329H772.12V523.26H753.043V431.869H597.891V498.212H485.978V483.319H583.478V472.826H470.293V510.059H597.891V523.26H456.304V498.212H441.467V584.188H421.967V478.242H393.141V449.47H381.272V487.042H409.674V498.212H396.109V574.372H381.272V498.212H363.891V366.879H451.217M510.565 294.443H635.62V342.17H806.033V328.969L655.12 325.923V262.626H583.478V272.103H635.62V283.95H529.641V272.103H566.946V262.626H518.196V286.997H510.565V294.443ZM451.217 366.879V376.019H381.272V436.269H393.141L392.293 379.403H452.913V389.897M451.217 366.879H456.304M452.913 389.897H405.859V460.302H440.196V488.735H458.424V460.302H583.478V337.431H518.196V366.879H492.337M452.913 389.897V396.666H492.337V366.879M456.304 366.879V360.787H333.37V325.923H341.848V307.983M456.304 366.879H492.337M341.848 307.983V298.167M341.848 271.088H232.478V421.037H244.348V277.857H341.848M341.848 271.088V277.857M341.848 271.088V260.256M341.848 277.857V288.012M341.848 260.256H240.533V257.548H223.152V252.809V252.471H341.848M341.848 260.256V252.471M269.359 324.569V460.302H261.728V324.569H269.359ZM269.359 324.569H271.478M341.848 298.167H277.837V324.569H271.478M341.848 298.167V288.012M341.848 288.012H271.478V324.569M146.848 329.307V483.996H269.359V469.779H261.728V477.565H152.783L154.902 329.307H146.848ZM470.293 158.372V123.507H603.826V158.372H470.293ZM485.978 168.865V179.696H522.859V168.865H485.978Z" stroke="#747474" stroke-width="2"/>
<path d="M807 361.047V327.829V310.452H812.755V304.544H886V328.176H878.937V361.047H807Z" fill="#FCFCFC"/>
<path d="M733 559.361V536.234V524.136H737.007V520.023H783.083V536.476V559.361H733Z" fill="#1D1D1D"/>
<path d="M161.083 80.4454V103.572V115.67H157.076V119.783H111V103.33V80.4454H161.083Z" fill="#1D1D1D"/>
<path d="M598 107.261V84.1765V72.1012H604.8V67.9956H683V84.4181V107.261H598Z" fill="#1D1D1D"/>
<path d="M363 611.076V587.949V575.851H367.007V571.738H413.083V583.709H447V611.076H363Z" fill="#1D1D1D"/>
<path d="M0 320.825V287.606V270.229H5.75497V264.321H87V287.954H71.9371V320.825H0Z" fill="#1D1D1D"/>
<path d="M491 0H456.314H438.169V5.51145H432V83.3186H456.676V68.8931H491V0Z" fill="#FCFCFC"/>
<path d="M161 131.203H70.3136H52.1691V136.715H46V222.662H70.3136L70.6765 200.096H161V131.203Z" fill="#FCFCFC"/>
<path d="M376.358 202.456V229.209H339.797V325.308H331V360.862H458.551V367.198H522.327V336.925H527V317.564H514.08V284.475H522.327V248.569V229.209H392.576V214.424H417.042V202.456H376.358Z" fill="#FCFCFC"/>
</svg>
